<?xml version="1.0" encoding="UTF-8" standalone="no"?>
<!-- Created with Inkscape (http://www.inkscape.org/) -->

<svg
   width="256"
   height="256"
   viewBox="0 0 67.733332 67.733335"
   version="1.1"
   id="svg844"
   inkscape:version="1.1.1 (3bf5ae0d25, 2021-09-20)"
   sodipodi:docname="bitiwo.svg"
   xmlns:inkscape="http://www.inkscape.org/namespaces/inkscape"
   xmlns:sodipodi="http://sodipodi.sourceforge.net/DTD/sodipodi-0.dtd"
   xmlns="http://www.w3.org/2000/svg"
   xmlns:svg="http://www.w3.org/2000/svg">
  <sodipodi:namedview
     id="namedview846"
     pagecolor="#ffffff"
     bordercolor="#666666"
     borderopacity="1.0"
     inkscape:pageshadow="2"
     inkscape:pageopacity="0.0"
     inkscape:pagecheckerboard="0"
     inkscape:document-units="px"
     showgrid="false"
     units="px"
     inkscape:zoom="2.5335859"
     inkscape:cx="118.6066"
     inkscape:cy="115.64637"
     inkscape:window-width="1680"
     inkscape:window-height="998"
     inkscape:window-x="0"
     inkscape:window-y="26"
     inkscape:window-maximized="1"
     inkscape:current-layer="layer1" />
  <defs
     id="defs841">
    <inkscape:path-effect
       effect="spiro"
       id="path-effect13594"
       is_visible="true"
       lpeversion="1" />
    <inkscape:path-effect
       effect="spiro"
       id="path-effect12257"
       is_visible="true"
       lpeversion="1" />
  </defs>
  <g
     inkscape:label="Layer 1"
     inkscape:groupmode="layer"
     id="layer1">
    <g
       id="g1698">
      <path
         id="path44"
         style="fill:#ffccaa;fill-rule:evenodd;stroke:#000000;stroke-width:0.529167;stroke-linecap:butt;stroke-linejoin:miter;stroke-miterlimit:4;stroke-dasharray:none;stroke-opacity:1"
         d="m 42.97266,46.931046 c 0,0 2.838954,2.490272 7.583594,1.957578 7.24688,-0.813628 11.815631,-2.705156 9.15117,-10.851281 C 57.08962,30.033862 49.836735,30.170783 47.696185,25.785165 42.968402,16.098741 44.865357,2.5854316 44.865357,2.5854316 l -21.308742,0.07355 c 0,0 1.626595,15.6463764 -4.00391,23.2070754 C 13.787507,33.607622 9.5086358,31.86616 7.5725931,38.155856 5.206552,45.842504 11.810885,48.64407 19.3448,49.019197 c 4.945113,0.246225 7.55261,-1.857444 7.55261,-1.857444"
         sodipodi:nodetypes="csssccsssc" />
      <g
         id="g1018">
        <path
           style="fill:#ffccaa;fill-rule:evenodd;stroke:#000000;stroke-width:0.79375;stroke-linecap:butt;stroke-linejoin:miter;stroke-miterlimit:4;stroke-dasharray:none;stroke-opacity:1"
           d="m 13.753791,45.2393 c -0.934403,0.83988 -0.61333,-2.554019 4.361483,-2.174287 10.31613,0.787438 9.994298,10.516667 16.793338,10.368828 6.509077,-0.141532 5.683693,-9.155125 15.994117,-10.041669 5.164466,-0.444068 4.906066,1.803323 4.906066,1.803323"
           id="path2120"
           sodipodi:nodetypes="csssc" />
      </g>
      <path
         style="fill:#80b3ff;fill-rule:evenodd;stroke:#000000;stroke-width:0.370591;stroke-linecap:butt;stroke-linejoin:miter;stroke-miterlimit:4;stroke-dasharray:none;stroke-opacity:1"
         d="m 48.507813,45.682961 c 0.598293,-0.03318 1.201677,0.146051 1.702088,0.475664 0.500411,0.329612 0.898695,0.805105 1.163394,1.342683 0.529397,1.075156 0.51471,2.357847 0.180216,3.508645 -0.344254,1.184375 -1.003334,2.257754 -1.355294,3.439862 -0.17725,0.595321 -0.274959,1.218045 -0.243477,1.838395 0.03148,0.620349 0.195303,1.238753 0.513875,1.771985 0.539866,0.903639 1.465101,1.491135 2.273985,2.164727 0.404442,0.336796 0.788994,0.70557 1.079555,1.144408 0.290561,0.438838 0.483624,0.954351 0.476404,1.480614 -0.0063,0.459123 -0.166799,0.911991 -0.435604,1.28425 -0.268806,0.372259 -0.643115,0.664355 -1.061888,0.852669 -0.837547,0.376628 -1.824998,0.328902 -2.685615,0.0085 -0.860617,-0.320425 -1.606999,-0.893288 -2.259891,-1.539093 -0.652893,-0.645805 -1.223498,-1.368793 -1.830975,-2.057491 -0.69352,-0.786246 -1.445878,-1.542498 -1.928333,-2.473298 -0.241228,-0.4654 -0.41127,-0.972599 -0.452375,-1.495187 -0.0411,-0.522588 0.05131,-1.061402 0.305446,-1.519881 0.241664,-0.435977 0.616671,-0.78243 1.009317,-1.089524 0.392646,-0.307093 0.810389,-0.583886 1.175549,-0.923202 0.582959,-0.541701 1.020665,-1.239724 1.246882,-2.002683 0.226217,-0.762959 0.239404,-1.588948 0.0301,-2.35672 -0.138598,-0.508418 -0.371271,-0.987672 -0.505086,-1.49737 -0.06691,-0.254849 -0.108818,-0.518 -0.09948,-0.78132 0.0093,-0.26332 0.07148,-0.527422 0.202235,-0.756173 0.147391,-0.257851 0.378572,-0.46335 0.642589,-0.599387 0.264017,-0.136037 0.559833,-0.204603 0.856381,-0.221051 z"
         id="path12255"
         inkscape:path-effect="#path-effect12257"
         inkscape:original-d="m 48.507813,45.682961 c 3.186887,1.718693 2.030238,3.551811 3.045698,5.326992 1.01546,1.77518 -0.903771,2.293719 -1.355294,3.439862 -0.45154,1.146141 0.180036,2.407406 0.270398,3.61038 0.09036,1.202985 3.316863,3.310002 3.829944,4.789749 0.513089,1.479754 -6.66001,-0.887866 -8.273973,-1.451187 -1.613964,-0.563322 -0.528339,-4.508696 -2.075262,-5.488366 -1.546916,-0.979672 0.980967,-0.686534 2.184866,-2.012726 1.2039,-1.326192 0.851097,-2.905788 1.276986,-4.359403 0.425889,-1.453618 -0.829013,-2.289644 -0.402333,-3.034863 0.686395,-1.258776 0.205143,-1.518203 1.49897,-0.820438 z"
         sodipodi:nodetypes="ssssssssscs" />
      <path
         style="fill:#ffccaa;fill-rule:evenodd;stroke:#000000;stroke-width:0.370591;stroke-linecap:butt;stroke-linejoin:miter;stroke-miterlimit:4;stroke-dasharray:none;stroke-opacity:1"
         d="m 38.343765,15.936299 c -0.01693,0.138435 -0.03232,0.277058 -0.04618,0.415835 -0.368456,3.690027 0.369747,7.452856 1.888033,10.836178 0.735275,1.638473 1.651173,3.195815 2.725762,4.634732"
         id="path13592"
         inkscape:path-effect="#path-effect13594"
         inkscape:original-d="m 38.343765,15.936299 c -0.01487,0.138898 -0.03033,0.277508 -0.04618,0.415835 -0.01583,0.138328 1.259154,7.224406 1.888033,10.836178 0.628881,3.611774 1.817637,3.090108 2.725762,4.634732" />
    </g>
  </g>
</svg>
